<?xml version="1.0" encoding="UTF-8"?>
<svg id="Layer_1" data-name="Layer 1" xmlns="http://www.w3.org/2000/svg" xmlns:xlink="http://www.w3.org/1999/xlink" viewBox="0 0 794.76 371.31">
  <defs>
    <style>
      .cls-1 {
        fill: #3b0764;
      }

      .cls-2 {
        fill: #0f766e;
      }

      .cls-3 {
        fill: #f97316;
      }

      .cls-4 {
        fill: url(#linear-gradient);
      }
    </style>
    <linearGradient id="linear-gradient" x1="217.39" y1="187.33" x2="422.52" y2="187.33" gradientTransform="translate(5.18 -10.59) rotate(1.54)" gradientUnits="userSpaceOnUse">
      <stop offset="0" stop-color="#0f766e"/>
      <stop offset=".2" stop-color="#1d516a"/>
      <stop offset=".42" stop-color="#2a3167"/>
      <stop offset=".63" stop-color="#331965"/>
      <stop offset=".83" stop-color="#390b64"/>
      <stop offset="1" stop-color="#3b0764"/>
    </linearGradient>
  </defs>
  <path class="cls-1" d="m496.65,125.6l-.13,3.21c11.14,4.27,22.26,8.58,33.37,12.94l.69-73.4-45.03,2.68-18.3,46.69c9.47,3.54,18.92,7.13,28.36,10.75l1.04-2.86Z"/>
  <path class="cls-1" d="m535.5,219.06c-7.91,8.14-15.83,16.31-23.75,24.52l22.84-1.36.91-23.16Z"/>
  <path class="cls-1" d="m422.95,252.51l34.92-2.08,4.71-12.95c-9.94-4.02-19.85-8.1-29.72-12.28l-9.91,27.3Z"/>
  <path class="cls-1" d="m500.49,209.65l-1.37,34.89,12.18-.73c7.92-8.21,15.84-16.38,23.75-24.52l1.46-37.07.32-34.11c-11.11-4.36-22.23-8.67-33.37-12.94l-1.96,47.63-16.68.99,17.74-48.97c-9.44-3.61-18.89-7.2-28.36-10.75l-24.92,63.59-12.28,33.85c9.87,4.17,19.78,8.26,29.72,12.28l8.23-22.64,25.54-1.52Z"/>
  <path class="cls-1" d="m591.37,244.23c29.95-1.79,47.4-14.9,52.36-39.36l1.66-8.11c-10.89-4.59-21.79-9.14-32.7-13.66.2.76.34,1.51.39,2.25.05.89,0,1.76-.16,2.6l-3.89,18.98c-1.29,6.38-5.35,9.77-12.15,10.18-5.56.33-8.46-1.53-8.7-5.59-.06-1,.05-2.12.32-3.37l4.84-24.05-27.04,1.61c-3.18,3.27-6.36,6.54-9.55,9.8l-2.96,14.71c-.86,4.29-1.19,8.16-.98,11.61.97,16.34,13.83,23.81,38.57,22.39Z"/>
  <path class="cls-1" d="m558.61,185.79l-1.88,9.35c3.18-3.27,6.37-6.54,9.55-9.8l-7.67.46Z"/>
  <path class="cls-1" d="m620.27,180.55c10.92,4.51,21.82,9.07,32.7,13.66l2.64-12.9c.65-3.05.9-6.02.72-8.91-.68-11.45-7.78-21.13-21.29-29.02-5.63-3.33-10.13-6.51-13.56-9.54-8.03,8.43-16.08,16.81-24.15,25.16.62.39,1.24.78,1.89,1.16,12.38,7.37,19.38,14.17,21.05,20.4Z"/>
  <path class="cls-1" d="m627.51,124.76l34.71-2.07,4.84-24.05c.86-4.29,1.19-8.16.98-11.61-.19-3.14-.82-5.94-1.88-8.43-12.44,13.71-24.95,27.19-37.51,40.5l-1.14,5.66Z"/>
  <path class="cls-1" d="m624.88,62.92c-29.95,1.79-47.41,14.88-52.37,39.27l-3.15,15.59c-.64,3.22-.88,6.33-.7,9.33.66,11.05,7.07,20.4,19.2,28.04,8.07-8.35,16.12-16.73,24.15-25.16-5.12-4.52-7.81-8.69-8.04-12.52-.05-.78.01-1.53.18-2.27l3.08-15.08c1.29-6.38,5.31-9.77,12.05-10.17h.21c5.49-.28,8.36,1.58,8.6,5.58.06,1-.05,2.12-.32,3.37l-3.7,18.4c12.56-13.31,25.07-26.78,37.51-40.5-4.47-10.44-16.7-15.07-36.69-13.88Z"/>
  <path class="cls-1" d="m700.85,219.58c-10.5-4.56-21.02-9.09-31.55-13.59l-6.15,30.36,34.71-2.07,2.99-14.7Z"/>
  <path class="cls-1" d="m739.52,62.87l-30.44,1.81c8.7,8.79,17.66,17.15,24.61,27.04l5.82-28.86Z"/>
  <path class="cls-1" d="m739.85,112.65l-3.35,16.59-20.53,1.22,8.55-42.37c-6.95-9.89-15.91-18.25-24.61-27.04l-4.28.25-28.2,139.22c10.53,4.5,21.04,9.03,31.55,13.59l11.49-56.54,20.53-1.22-13.39,65.89c3.53,1.55,7.06,3.1,10.59,4.66l23.03-1.37,16.58-81.86c-9.27-10.36-18.57-20.71-27.97-31.01Z"/>
  <path class="cls-1" d="m794.76,59.57l-34.71,2.07-11.03,54.64c9.4,10.29,18.7,20.65,27.97,31.01l17.77-87.72Z"/>
  <path class="cls-1" d="m717.62,222.23l-1.09,5.35,11.67-.7c-3.53-1.55-7.06-3.11-10.59-4.66Z"/>
  <path class="cls-2" d="m118.43,106.1l-35.02,2.09-8.42,24.82c9.68,4.35,19.32,8.77,28.94,13.25l14.5-40.15Z"/>
  <path class="cls-2" d="m36.81,105.07l-20.77,1.24c6.73,2.8,13.45,5.63,20.14,8.51l.63-9.75Z"/>
  <path class="cls-2" d="m38.34,164.88c-10.79-5.69-21.73-11.34-32.84-16.95l-.83,20.86-.42,49.46c9.79,6.3,19.61,12.58,29.45,18.83l4.64-72.21Z"/>
  <path class="cls-2" d="m72.38,233.23l16.26-41.48c-8.83-4.94-17.71-9.83-26.68-14.67l-21.46,63.26c4.26,2.7,8.52,5.4,12.79,8.08,6.34-5.09,12.7-10.16,19.09-15.19Z"/>
  <path class="cls-2" d="m31.31,244.62l-.4,1.17.09-1.37c-9.84-6.25-19.65-12.52-29.45-18.83l-.49,58.21,5.07-.3c12.6-10.32,25.25-20.6,37.96-30.8-4.27-2.69-8.53-5.38-12.79-8.08Z"/>
  <path class="cls-2" d="m35.95,114.61c-6.69-2.88-13.41-5.72-20.14-8.51l-14.26.85-1.55,39.19c11.11,5.61,22.04,11.25,32.84,16.95l3.11-48.48Z"/>
  <path class="cls-2" d="m89.17,161.95l7.67-21.25c-9.62-4.48-19.26-8.9-28.94-13.25l-15.19,44.76c8.97,4.84,17.85,9.73,26.68,14.67l9.77-24.93Z"/>
  <path class="cls-2" d="m72.38,233.23c-6.39,5.03-12.74,10.1-19.09,15.19,3.51,2.21,7.02,4.41,10.54,6.61l8.54-21.79Z"/>
  <path class="cls-2" d="m44.54,252.16c-13.3,10.38-26.53,20.85-39.72,31.36l41.8-2.43,8.95-22.21c-3.68-2.24-7.36-4.48-11.03-6.73Z"/>
  <path class="cls-2" d="m149.36,163.74l6.74-33.22c1.29-6.38,5.31-9.77,12.05-10.17h.21c5.49-.28,8.36,1.58,8.6,5.58.06,1-.05,2.12-.32,3.37l-3.59,17.85c12.82-8.25,25.87-16.18,38.96-24.05.34-2.67.46-5.18.32-7.47-.97-16.34-13.83-23.78-38.57-22.3-29.95,1.79-47.41,14.88-52.37,39.27l-3.47,17.1c10.2,4.84,20.37,9.74,30.54,14.67.3-.21.6-.41.9-.61Z"/>
  <path class="cls-2" d="m217.79,134.5c.29-1.43.49-2.8.66-4.13-13.09,7.87-26.14,15.8-38.96,24.05l-.22,1.07c.55-.35,1.1-.71,1.65-1.06-.55.35-1.1.71-1.65,1.06l-1.03,5.13,34.71-2.07,4.84-24.05Z"/>
  <path class="cls-2" d="m151.18,162.81c-.3.2-.6.41-.9.61.24.11.47.23.71.34l.19-.96Z"/>
  <path class="cls-2" d="m117.91,148.77l-8.62,42.48c12.88-9.5,25.92-18.79,39.15-27.82-10.16-4.93-20.34-9.82-30.54-14.67Z"/>
  <path class="cls-2" d="m155.5,169.87c-.24-.11-.47-.23-.71-.34-13.24,9.02-26.27,18.32-39.15,27.82l-1.97,9.74c10.23,5.95,20.42,11.99,30.61,18.14l11.23-55.35Z"/>
  <path class="cls-2" d="m168.77,252.43s-.02.09-.03.13c8.91,5.5,17.85,11.09,26.82,16.8,3.78-5.31,6.42-11.64,7.92-19l8.12-39.86c-13.07-6.43-26.14-12.85-39.22-19.23l-4.95,24.42,8.96-.53-7.61,37.27Z"/>
  <path class="cls-2" d="m136.49,277.39c20.96-1.29,35.8-8.08,44.54-20.37-8.97-5.7-17.9-11.3-26.82-16.8-1.32,6.3-5.4,9.65-12.23,10.06-5.49.33-8.36-1.54-8.6-5.6-.06-1,.05-2.12.32-3.37l2.46-12.12c-10.19-6.15-20.38-12.19-30.61-18.14l-6.56,32.33c-.86,4.29-1.19,8.19-.98,11.69.97,16.34,13.79,23.78,38.46,22.31Z"/>
  <path class="cls-2" d="m216.59,186.9l-43.67,2.6-.54,2.68c13.09,6.38,26.16,12.8,39.22,19.23l4.99-24.52Z"/>
  <path class="cls-3" d="m244.85,104.33c5.64-3.44,11.27-6.92,16.85-10.44-6.72,2.49-12.34,5.97-16.85,10.44Z"/>
  <path class="cls-4" d="m410.43,103.75c-10.66-3.76-21.34-7.46-32.04-11.12l.39-1.93,34.71-2.07-3.06,15.12Zm-61.24,78.16l-14.84,73.27,81.72-4.87,5.5-27.02-47.01,2.8,5.76-28.49c-10.45-5.03-20.84-10.24-31.14-15.69Zm61.11-77.93c-10.66-3.76-21.34-7.46-32.04-11.12l-19.11,94.37c10.3,5.45,20.68,10.66,31.14,15.69l20.02-98.94Zm-103.51,128.13l4.84-24.05-34.71,2.07-4.8,23.83c9.62,4.64,19.25,9.24,28.9,13.79,2.64-4.56,4.57-9.77,5.76-15.64Zm-40.16-105.64c1.29-6.38,5.31-9.77,12.05-10.17h.21c5.49-.28,8.36,1.58,8.6,5.58.06,1-.05,2.12-.32,3.37l-3.33,16.54c7.66-17.06,16.55-33.47,26.99-48.92-6.35-3.07-15.19-4.28-26.54-3.6-8.75.52-16.43,2.02-23.04,4.47-5.59,3.52-11.21,7-16.85,10.44-6.27,6.21-10.43,14.33-12.47,24.36l-14.99,73.92c10.39,5.11,20.79,10.2,31.19,15.27l18.51-91.25Zm60.45.6c.86-4.29,1.19-8.16.98-11.61-.53-8.85-4.54-15.08-12.03-18.7-10.43,15.45-19.33,31.86-26.99,48.92l-1.51,7.51,34.71-2.07,4.84-24.05Zm-72.76,144.41c22.8-1.4,38.36-9.32,46.71-23.73-9.65-4.55-19.29-9.15-28.9-13.79l-.04.22c-1.29,6.38-5.38,9.78-12.26,10.19-1.82.11-3.35-.03-4.6-.41-2.92,9.22-5.8,18.45-8.71,27.67,2.46.06,5.06.01,7.81-.15Zm-7.81.15c2.9-9.22,5.79-18.45,8.71-27.67-2.5-.75-3.84-2.48-4-5.19-.06-1,.05-2.12.32-3.37l2.11-10.39c-10.41-5.07-20.8-10.16-31.19-15.27l-5.62,27.73c-.86,4.29-1.19,8.19-.98,11.69.87,14.52,11.09,22,30.65,22.46ZM414.48,0l-111.03,125.76,18.7,6.22-48.35,49.93,48.73,28.26-69.21,161.15,121.78-171-30.18-24.47,41.4-43.4-24.19-16.28L414.48,0Z"/>
  <polygon class="cls-3" points="384.19 45.44 319.11 122.03 337.62 135.43 287.17 180.75 333.82 204.85 293.88 293.38 362.25 200.1 331.61 178.1 373.81 137.7 346.5 120.39 384.19 45.44"/>
</svg>